# xmcd CD database file
# Copyright (C) 1995-1998 Ti Kan
#
# Track frame offsets:
#	150
#	17495
#	32252
#	48110
#	66904
#	87072
#	100778
#	126292
#	138473
#	155307
#	173003
#	189146
#	211181
#	227288
#	247149
#
# Disc length: 3464 seconds
#
# Revision: 1
# Processed by: cddbd v1.5.1PL0 Copyright (c) Steve Scherf et al.
# Submitted via: CDex 1.30Release
#
DISCID=ae0d860f
DTITLE=Tilman Rossmy Quartett - Alles muss gehen
DYEAR=2004
DGENRE=Country
TTITLE0=Der Gärtner und die Rose
TTITLE1=Der Wanderer
TTITLE2=Wohin ich auch wander
TTITLE3=Platz in der Welt
TTITLE4=Alles muss gehen
TTITLE5=Die Heimkehr
TTITLE6=Here we go again
TTITLE7=Mysteriös
TTITLE8=Gärten durch die Ströme fliessen
TTITLE9=Endloser langer Sommer
TTITLE10=Dass da kein Zweiter ist
TTITLE11=Bring Dich selbst in Schwierigkeiten und dann
TTITLE12=Lass es regnen
TTITLE13=Ich kam wegen dem Wein
TTITLE14=Trunkenbold
EXTD=YEAR: 2004 ID3G:   2
EXTT0=
EXTT1=
EXTT2=
EXTT3=
EXTT4=
EXTT5=
EXTT6=
EXTT7=
EXTT8=
EXTT9=
EXTT10=
EXTT11=
EXTT12=
EXTT13=
EXTT14=
PLAYORDER=
